<svg width="835" height="904" viewBox="0 0 835 904" fill="none" xmlns="http://www.w3.org/2000/svg">
<g opacity="0.6">
<path fill-rule="evenodd" clip-rule="evenodd" d="M492.898 651.083C428.871 697.652 364.965 753.263 302.678 762.454C229.314 773.279 160.071 760.088 136.771 703.634C112.718 645.355 144.066 557.036 183.732 474.259C224.242 389.719 280.25 306.972 357.291 243.436C443.88 172.026 548.425 99.4352 624.515 110.744C698.643 121.761 698.605 217.71 706.621 295.355C712.989 357.035 708.206 426.659 664.619 499.207C625.008 565.137 555.752 605.368 492.898 651.083Z" stroke="#C6B5E2"/>
<path fill-rule="evenodd" clip-rule="evenodd" d="M467.483 707.386C383.465 767.322 300.686 759.202 231.495 744.968C171.241 732.572 131.151 693.274 114.109 634.689C97.5811 577.87 96.1582 505.971 140.38 431.734C181.68 362.4 262.023 334.108 325.316 280.12C409.13 208.629 478.977 84.4486 564.743 69.7628C652.533 54.7306 684.281 139.697 698.05 216.297C710.436 285.199 674.649 371.884 634.444 457.516C592.578 546.687 551.624 647.362 467.483 707.386Z" stroke="#C6B5E2"/>
<path fill-rule="evenodd" clip-rule="evenodd" d="M446.972 707.893C374.56 776.45 275.638 819.781 212.782 803.004C153.43 787.163 175.095 693.892 161.566 631.716C149.878 578.001 115.745 536.942 140.143 469.17C167.89 392.092 222.315 304.007 296.699 256.336C368.661 210.218 422.225 247.789 487.316 246.678C560.29 245.433 679.885 183.715 694.973 249.541C710.24 316.15 588.969 405.535 543.141 490.233C502.526 565.298 512.318 646.026 446.972 707.893Z" stroke="#C6B5E2"/>
<path fill-rule="evenodd" clip-rule="evenodd" d="M485.055 683.317C410.045 741.487 326.62 753.429 264.063 739.858C207.99 727.694 200.13 663.937 174.974 616.05C144.221 557.51 65.0438 522.407 103.229 433.704C141.641 344.477 253.214 299.833 337.222 239.156C422.12 177.836 512.764 78.274 587.821 83.6967C662.658 89.1035 660.486 187.259 667.696 263.032C673.392 322.891 654.586 389.912 623.717 460.946C589.609 539.433 557.772 626.925 485.055 683.317Z" stroke="#C6B5E2"/>
<path fill-rule="evenodd" clip-rule="evenodd" d="M484.475 651.433C422.333 689.038 362.242 748.784 304.388 754.578C240.101 761.016 200.148 725.741 170.337 682.894C131.404 626.937 77.5462 571.391 112.214 478.372C149.161 379.236 246.964 286.741 341.829 222.749C432.792 161.39 529.718 132.158 604.635 146.208C673.273 159.081 695.832 226.509 714.905 292.715C733.213 356.265 762.029 427.468 709.305 509.545C658.405 588.783 562.715 604.087 484.475 651.433Z" stroke="#C6B5E2"/>
<path fill-rule="evenodd" clip-rule="evenodd" d="M477.59 617.869C398.328 677.561 313.66 792.951 246.018 782.188C177.641 771.308 233.334 645.466 220.083 576.896C209.26 520.893 143.189 493.395 176.658 423.274C210.197 353.007 298.16 325.038 363.794 275.806C433.918 223.206 503.483 129.682 568.167 129.602C633.143 129.523 620.549 221.095 640.774 275.466C661.93 332.338 724.893 370.981 687.298 449.864C649.601 528.961 551.404 562.281 477.59 617.869Z" stroke="#C6B5E2"/>
<path fill-rule="evenodd" clip-rule="evenodd" d="M480.868 641.869C420.829 681.942 362.686 695.515 305.984 701.61C235.825 709.153 156.158 726.372 123.112 680.33C85.0832 627.346 74.2757 539.246 125.835 450.614C175.624 365.026 275.904 328.951 358.784 275.203C431.96 227.748 505.268 165.501 573.173 160.514C647.401 155.062 712.159 182.421 726.418 248.201C740.055 311.114 690.75 399.058 641.868 477.426C601.052 542.862 544.496 599.401 480.868 641.869Z" stroke="#C6B5E2"/>
<path fill-rule="evenodd" clip-rule="evenodd" d="M489.566 645.526C420.535 693.848 353.034 695.538 291.485 692.976C229.217 690.385 169.673 679.987 144.365 631.159C116.34 577.089 101.734 500.756 150.11 420.212C196.609 342.792 287.324 309.638 363.452 266.385C422.599 232.78 479.75 205.836 533.819 202.205C595.576 198.057 661.729 197.026 683.465 244.893C706.181 294.919 679.687 373.116 644.469 445.884C608.771 519.643 559.449 596.608 489.566 645.526Z" stroke="#C6B5E2"/>
</g>
</svg>
