<svg width="307" height="240" viewBox="0 0 307 240" fill="none" xmlns="http://www.w3.org/2000/svg">
<g clip-path="url(#clip0_44_10485)">
<path d="M155.788 240C239.3 240 307.001 209.977 307.001 172.943C307.001 135.908 239.3 105.886 155.788 105.886C72.2747 105.886 4.57422 135.908 4.57422 172.943C4.57422 209.977 72.2747 240 155.788 240Z" fill="url(#paint0_radial_44_10485)" fill-opacity="0.2"/>
<path d="M220.859 176.132C255.735 141.252 255.735 84.6994 220.859 49.8189C185.983 14.9385 129.437 14.9385 94.5611 49.8189C59.6849 84.6994 59.6849 141.252 94.5611 176.132C129.437 211.013 185.983 211.013 220.859 176.132Z" fill="#FFD52D" fill-opacity="0.1"/>
<path d="M176.985 203.017C154.903 203.017 133.607 194.968 117.041 180.344L118.003 179.264C134.314 193.653 155.257 201.584 176.985 201.584C226.192 201.584 266.213 161.557 266.213 112.344C266.213 63.1311 226.192 23.1049 176.985 23.1049C155.257 23.1049 134.294 31.0355 118.003 45.4245L117.041 44.3449C133.607 29.7203 154.903 21.6719 176.985 21.6719C226.977 21.6719 267.666 62.3459 267.666 112.364C267.666 162.343 226.997 203.017 176.985 203.017Z" fill="#C6B5E2"/>
<path d="M1.90325 111.461C-0.000660883 108.379 -0.47173 103.942 0.490037 98.1316L3.68938 78.8351C4.67078 72.8871 6.61394 68.4114 9.51887 65.3687C12.4238 62.326 16.7812 60.8145 22.5911 60.8145C28.1457 60.8145 31.8554 62.1493 33.7201 64.8387C35.5847 67.528 36.095 71.3756 35.2707 76.3813L34.5248 80.8963H23.7491L24.5735 75.9102C24.8286 74.3201 24.966 73.0245 24.9857 72.043C24.9857 71.0615 24.7305 70.2566 24.1809 69.6088C23.6313 68.961 22.6892 68.6469 21.3545 68.6469C19.3328 68.6469 17.9392 69.2947 17.1345 70.5707C16.3298 71.8663 15.7409 73.7508 15.3287 76.2242L11.2658 100.723C10.8536 103.255 10.8732 105.14 11.3443 106.376C11.8153 107.613 12.9538 108.241 14.7988 108.241C16.6831 108.241 17.9981 107.613 18.744 106.337C19.4898 105.081 20.0787 103.196 20.4712 100.723L21.3349 95.4619H32.091L31.3451 99.918C30.5011 105.061 28.6953 109.046 25.9474 111.853C23.1995 114.66 19.0188 116.074 13.4248 116.074C7.65422 116.093 3.80715 114.543 1.90325 111.461Z" fill="#FFD52D" fill-opacity="0.1"/>
<path d="M39.0985 111.598C37.1357 108.614 36.6254 104.197 37.5872 98.3868L40.9043 78.305C41.8661 72.4945 43.8289 68.1366 46.773 65.2116C49.7172 62.2867 54.0746 60.8145 59.8649 60.8145C65.5962 60.8145 69.4629 62.2867 71.4649 65.2313C73.467 68.1758 73.9773 72.5337 73.0352 78.305L69.6984 98.4654C68.7367 104.237 66.7739 108.614 63.7904 111.598C60.807 114.582 56.4496 116.093 50.7183 116.093C44.928 116.093 41.0613 114.582 39.0985 111.598ZM56.1159 106.337C56.9796 105.081 57.588 103.334 57.9609 101.115L62.1809 75.6353C62.5539 73.4171 62.5146 71.7093 62.0632 70.4726C61.6117 69.2555 60.4537 68.6469 58.5694 68.6469C56.6851 68.6469 55.3308 69.2555 54.4672 70.4726C53.6232 71.6896 53.0147 73.4171 52.6418 75.6353L48.4218 101.115C48.0489 103.373 48.0685 105.12 48.5003 106.376C48.9125 107.613 50.0902 108.241 52.0137 108.241C53.898 108.241 55.2523 107.613 56.1159 106.337Z" fill="#FFD52D" fill-opacity="0.1"/>
<path d="M83.9274 61.4819H95.6845L96.7837 95.462L109.522 61.4819H120.867L112.957 115.347H104.89L110.072 78.7566L97.0389 115.347H90.1887L89.0896 78.5603L82.2002 115.347H74.0742L83.9274 61.4819Z" fill="#FFD52D" fill-opacity="0.1"/>
<path d="M130.015 61.4819H141.026L132.115 115.347H121.104L130.015 61.4819Z" fill="#FFD52D" fill-opacity="0.1"/>
<path d="M149.29 61.4819H157.023L164.482 89.4747L169.114 61.4819H178.32L169.389 115.347H161.93L154.766 85.5487L149.84 115.347H140.359L149.29 61.4819Z" fill="#FFD52D" fill-opacity="0.1"/>
<path d="M180.831 111.323C179.103 108.104 178.731 103.51 179.732 97.5231L182.715 79.5025C183.736 73.3778 185.698 68.7451 188.623 65.565C191.548 62.4045 195.905 60.8145 201.734 60.8145C207.328 60.8145 211.097 62.1689 213.02 64.8779C214.944 67.5869 215.494 71.4933 214.65 76.5776L214.139 79.6988H203.383L204.011 75.9102C204.423 73.4367 204.443 71.5915 204.07 70.4137C203.697 69.2359 202.539 68.6469 200.557 68.6469C198.535 68.6469 197.141 69.3144 196.337 70.6492C195.532 71.9841 194.924 73.9079 194.511 76.4402L190.547 100.389C190.134 102.921 190.174 104.865 190.664 106.2C191.155 107.554 192.392 108.222 194.354 108.222C196.278 108.222 197.75 107.495 198.771 106.062C199.791 104.629 200.517 102.607 200.949 100.036L201.891 94.3234H196.592L197.691 87.6687H213.001L208.428 115.347H201.165L201.224 110.558C198.947 114.287 195.669 116.152 191.371 116.152C186.071 116.152 182.558 114.543 180.831 111.323Z" fill="#FFD52D" fill-opacity="0.1"/>
<path d="M88.6003 175.808C86.5394 173.08 85.8721 168.859 86.5983 163.147L96.3926 161.557C95.9215 164.972 95.9804 167.485 96.5889 169.114C97.1974 170.744 98.375 171.549 100.122 171.549C101.417 171.549 102.438 171.136 103.145 170.312C103.871 169.487 104.322 168.447 104.538 167.151C104.891 165.031 104.715 163.225 103.989 161.733C103.262 160.242 102.026 158.612 100.259 156.846L95.4112 151.997C93.4877 150.132 92.0941 148.13 91.2697 146.01C90.4257 143.89 90.2687 141.338 90.7594 138.354C91.4856 133.957 93.3503 130.58 96.373 128.205C99.3957 125.83 103.203 124.652 107.816 124.652C112.743 124.652 115.942 126.065 117.394 128.872C118.847 131.68 119.357 135.272 118.906 139.61L109.072 141.004C109.445 138.157 109.465 136.077 109.131 134.722C108.797 133.368 107.796 132.7 106.148 132.7C104.931 132.7 103.93 133.152 103.105 134.055C102.281 134.958 101.771 136.037 101.555 137.274C101.26 139.041 101.398 140.552 101.987 141.769C102.575 142.987 103.596 144.321 105.049 145.794L109.759 150.583C111.977 152.841 113.626 155.236 114.686 157.729C115.746 160.242 116.001 163.167 115.451 166.543C115.019 169.114 114.058 171.411 112.566 173.433C111.074 175.455 109.151 177.045 106.835 178.184C104.519 179.342 101.967 179.911 99.1994 179.911C94.1943 179.892 90.6613 178.537 88.6003 175.808Z" fill="#FFD52D" fill-opacity="0.1"/>
<path d="M122.733 175.396C120.771 172.412 120.26 167.996 121.222 162.185L124.539 142.123C125.501 136.312 127.464 131.954 130.408 129.03C133.352 126.105 137.709 124.632 143.5 124.632C149.231 124.632 153.098 126.105 155.1 129.049C157.102 131.994 157.612 136.352 156.67 142.123L153.333 162.283C152.371 168.055 150.409 172.432 147.425 175.416C144.442 178.4 140.084 179.911 134.353 179.911C128.563 179.892 124.696 178.4 122.733 175.396ZM139.751 170.155C140.614 168.899 141.223 167.152 141.596 164.933L145.816 139.453C146.189 137.235 146.149 135.527 145.698 134.29C145.247 133.073 144.088 132.465 142.204 132.465C140.32 132.465 138.966 133.073 138.102 134.29C137.258 135.507 136.649 137.235 136.277 139.453L132.057 164.933C131.684 167.191 131.703 168.938 132.135 170.194C132.547 171.431 133.725 172.059 135.648 172.059C137.513 172.039 138.887 171.411 139.751 170.155Z" fill="#FFD52D" fill-opacity="0.1"/>
<path d="M161.421 175.396C159.458 172.412 158.948 167.996 159.909 162.185L163.227 142.123C164.188 136.312 166.131 131.954 169.095 129.03C172.039 126.105 176.397 124.632 182.187 124.632C187.918 124.632 191.785 126.105 193.787 129.049C195.789 131.994 196.3 136.352 195.357 142.123L192.021 162.283C191.059 168.055 189.096 172.432 186.113 175.416C183.129 178.4 178.772 179.911 173.041 179.911C167.25 179.892 163.384 178.4 161.421 175.396ZM178.438 170.155C179.302 168.899 179.91 167.152 180.283 164.933L184.503 139.453C184.876 137.235 184.837 135.527 184.385 134.29C183.934 133.073 182.776 132.465 180.892 132.465C179.007 132.465 177.653 133.073 176.789 134.29C175.945 135.507 175.337 137.235 174.964 139.453L170.744 164.933C170.371 167.191 170.391 168.938 170.823 170.194C171.235 171.431 172.412 172.059 174.336 172.059C176.22 172.039 177.575 171.411 178.438 170.155Z" fill="#FFD52D" fill-opacity="0.1"/>
<path d="M205.505 125.28H213.238L220.697 153.273L225.329 125.28H234.534L225.623 179.146H218.165L211.001 149.367L206.074 179.165H196.594L205.505 125.28Z" fill="#FFD52D" fill-opacity="0.1"/>
<path d="M8.6552 104.708C6.75129 101.626 6.28022 97.1898 7.24199 91.3792L10.4413 72.0826C11.4227 66.1346 13.3659 61.6589 16.2708 58.6162C19.1758 55.5735 23.5331 54.062 29.343 54.062C34.8977 54.062 38.6074 55.3969 40.472 58.0862C42.3367 60.7756 42.847 64.6231 42.0226 69.6288L41.2768 74.1438H30.5207L31.3451 69.1577C31.6002 67.5677 31.7376 66.2721 31.7572 65.2905C31.7572 64.309 31.5021 63.5042 30.9525 62.8564C30.4029 62.2086 29.4608 61.8945 28.1261 61.8945C26.1044 61.8945 24.7108 62.5423 23.9061 63.8183C23.1013 65.1139 22.5125 66.9984 22.1003 69.4718L18.0177 93.9704C17.6055 96.5027 17.6251 98.3872 18.0962 99.6239C18.5673 100.861 19.7057 101.489 21.5507 101.489C23.435 101.489 24.7501 100.861 25.4959 99.5847C26.2418 98.3283 26.8306 96.4438 27.2232 93.9704L28.0868 88.7095H38.8429L38.0971 93.1656C37.2531 98.3087 35.4473 102.294 32.6994 105.101C29.9515 107.908 25.7707 109.321 20.1768 109.321C14.4062 109.341 10.5591 107.79 8.6552 104.708Z" fill="#C6B5E2"/>
<path d="M45.831 104.846C43.8682 101.862 43.3578 97.445 44.3196 91.6344L47.6367 71.5526C48.5985 65.742 50.5613 61.3841 53.5055 58.4592C56.4497 55.5343 60.807 54.062 66.5973 54.062C72.3286 54.062 76.1953 55.5343 78.1974 58.4788C80.1994 61.4234 80.7097 65.7813 79.7676 71.5526L76.4309 91.7129C75.4691 97.4842 73.5063 101.862 70.5229 104.846C67.5394 107.829 63.182 109.341 57.4507 109.341C51.6801 109.341 47.8134 107.849 45.831 104.846ZM62.868 99.6043C63.7316 98.348 64.3401 96.6009 64.713 94.3826L68.9134 68.9025C69.2863 66.6843 69.247 64.9765 68.7956 63.7398C68.3442 62.5227 67.1861 61.9141 65.3018 61.9141C63.4176 61.9141 62.0632 62.5227 61.1996 63.7398C60.3556 64.9568 59.7471 66.6843 59.3742 68.9025L55.1542 94.3826C54.7813 96.6401 54.8009 98.3872 55.2327 99.6436C55.6449 100.88 56.8226 101.508 58.7461 101.508C60.6304 101.489 62.0043 100.861 62.868 99.6043Z" fill="#C6B5E2"/>
<path d="M90.6794 54.7295H102.436L103.536 88.7095L116.274 54.7295H127.619L119.709 108.595H111.642L116.824 72.0042L103.791 108.595H96.9407L95.8415 71.8078L88.9521 108.595H80.8262L90.6794 54.7295Z" fill="#C6B5E2"/>
<path d="M136.747 54.7295H147.758L138.847 108.595H127.836L136.747 54.7295Z" fill="#C6B5E2"/>
<path d="M156.022 54.7295H163.756L171.214 82.7223L175.847 54.7295H185.052L176.141 108.595H168.682L161.518 78.7962L156.592 108.595H147.111L156.022 54.7295Z" fill="#C6B5E2"/>
<path d="M187.583 104.59C185.855 101.371 185.482 96.7774 186.483 90.7902L189.467 72.7696C190.488 66.6449 192.45 62.0122 195.375 58.8321C198.299 55.6716 202.657 54.0815 208.486 54.0815C214.08 54.0815 217.849 55.436 219.772 58.145C221.696 60.854 222.246 64.7604 221.402 69.8447L220.891 72.9659H210.135L210.763 69.1772C211.175 66.7038 211.195 64.8586 210.822 63.6808C210.449 62.5029 209.291 61.914 207.328 61.914C205.307 61.914 203.913 62.5815 203.108 63.9163C202.304 65.2512 201.695 67.175 201.283 69.7073L197.318 93.6562C196.906 96.1885 196.945 98.1319 197.436 99.4668C197.927 100.821 199.163 101.489 201.126 101.489C203.049 101.489 204.522 100.762 205.542 99.3294C206.563 97.8964 207.289 95.8744 207.721 93.3029L208.663 87.5905H203.363L204.463 80.9358H219.772L215.199 108.615H207.937L207.996 103.825C205.719 107.554 202.441 109.419 198.142 109.419C192.804 109.4 189.31 107.79 187.583 104.59Z" fill="#C6B5E2"/>
<path d="M95.3523 169.056C93.2914 166.327 92.624 162.107 93.3503 156.394L103.145 154.804C102.674 158.22 102.732 160.733 103.341 162.362C103.949 163.991 105.127 164.796 106.874 164.796C108.169 164.796 109.19 164.384 109.897 163.559C110.623 162.735 111.074 161.695 111.29 160.399C111.643 158.279 111.467 156.473 110.741 154.981C110.014 153.489 108.778 151.86 107.011 150.093L102.163 145.244C100.24 143.38 98.8461 141.377 98.0217 139.257C97.1777 137.137 97.0207 134.585 97.5114 131.601C98.2376 127.204 100.102 123.828 103.125 121.453C106.148 119.077 109.955 117.899 114.568 117.899C119.495 117.899 122.694 119.313 124.146 122.12C125.599 124.927 126.109 128.519 125.658 132.858L115.824 134.251C116.197 131.405 116.217 129.324 115.883 127.97C115.549 126.615 114.548 125.948 112.9 125.948C111.683 125.948 110.682 126.399 109.857 127.302C109.033 128.205 108.523 129.285 108.307 130.522C108.012 132.288 108.15 133.8 108.739 135.017C109.327 136.234 110.348 137.569 111.8 139.041L116.511 143.831C118.729 146.089 120.378 148.483 121.438 150.976C122.498 153.489 122.753 156.414 122.203 159.79C121.771 162.362 120.81 164.659 119.318 166.681C117.826 168.703 115.903 170.293 113.587 171.431C111.271 172.589 108.719 173.159 105.951 173.159C100.946 173.139 97.4132 171.785 95.3523 169.056Z" fill="#C6B5E2"/>
<path d="M129.466 168.663C127.503 165.68 126.993 161.263 127.954 155.452L131.271 135.37C132.233 129.56 134.196 125.202 137.14 122.277C140.084 119.352 144.442 117.88 150.232 117.88C155.963 117.88 159.83 119.352 161.832 122.297C163.834 125.241 164.344 129.599 163.402 135.37L160.066 155.531C159.104 161.302 157.141 165.68 154.158 168.663C151.174 171.647 146.817 173.139 141.085 173.139C135.315 173.139 131.448 171.647 129.466 168.663ZM146.503 163.403C147.366 162.146 147.975 160.399 148.348 158.181L152.548 132.701C152.921 130.483 152.882 128.775 152.43 127.538C151.979 126.321 150.821 125.712 148.937 125.712C147.052 125.712 145.698 126.321 144.834 127.538C143.99 128.755 143.382 130.483 143.009 132.701L138.789 158.181C138.416 160.438 138.436 162.185 138.867 163.442C139.28 164.679 140.457 165.307 142.381 165.307C144.265 165.307 145.639 164.679 146.503 163.403Z" fill="#C6B5E2"/>
<path d="M168.151 168.663C166.188 165.68 165.678 161.263 166.64 155.452L169.977 135.37C170.938 129.56 172.882 125.202 175.845 122.277C178.79 119.352 183.147 117.88 188.937 117.88C194.669 117.88 198.535 119.352 200.537 122.297C202.539 125.241 203.05 129.599 202.108 135.37L198.771 155.531C197.809 161.302 195.846 165.68 192.863 168.663C189.879 171.647 185.522 173.159 179.791 173.159C174 173.139 170.134 171.647 168.151 168.663ZM185.188 163.403C186.052 162.146 186.66 160.399 187.033 158.181L191.234 132.701C191.607 130.483 191.567 128.775 191.116 127.538C190.664 126.321 189.506 125.712 187.622 125.712C185.738 125.712 184.384 126.321 183.52 127.538C182.676 128.755 182.067 130.483 181.695 132.701L177.475 158.181C177.102 160.438 177.121 162.185 177.553 163.442C177.965 164.679 179.143 165.307 181.066 165.307C182.951 165.307 184.325 164.679 185.188 163.403Z" fill="#C6B5E2"/>
<path d="M212.257 118.547H219.99L227.449 146.54L232.081 118.547H241.286L232.375 172.413H224.917L217.753 142.614L212.826 172.413H203.346L212.257 118.547Z" fill="#C6B5E2"/>
<path d="M249.098 -0.0217342L225.959 23.1172L226.986 24.1445L250.125 1.00557L249.098 -0.0217342Z" fill="#C6B5E2"/>
<path d="M103.445 201.351L91.1758 213.621L92.2028 214.648L104.472 202.378L103.445 201.351Z" fill="#C6B5E2"/>
<path d="M146.076 2.7813L127.215 21.645L128.242 22.6722L147.103 3.80847L146.076 2.7813Z" fill="#C6B5E2"/>
<path d="M286.821 74.5036L255.08 106.249L256.107 107.276L287.848 75.5308L286.821 74.5036Z" fill="#C6B5E2"/>
<path d="M19.3734 45.5227C18.8042 44.7571 18.6079 43.5793 18.8238 41.9892L21.5521 41.5377C21.4147 42.48 21.4343 43.1867 21.611 43.6382C21.7876 44.0897 22.1017 44.3056 22.5924 44.3056C22.9457 44.3056 23.2401 44.1878 23.4364 43.9719C23.6327 43.7363 23.7701 43.4419 23.8289 43.0885C23.9271 42.4996 23.8682 41.9892 23.6719 41.577C23.4756 41.1648 23.1223 40.7133 22.6316 40.2225L21.2773 38.868C20.7474 38.3576 20.3548 37.7884 20.1193 37.1994C19.8837 36.6105 19.8445 35.9038 19.9819 35.0597C20.1781 33.8427 20.7081 32.9004 21.5521 32.233C22.3961 31.5655 23.456 31.2515 24.7318 31.2515C26.1058 31.2515 26.989 31.6441 27.4012 32.4293C27.8134 33.2145 27.9508 34.2156 27.8134 35.4131L25.0655 35.8057C25.1636 35.0205 25.1833 34.4316 25.0851 34.0586C24.987 33.6856 24.7122 33.4893 24.2607 33.4893C23.9271 33.4893 23.6327 33.6071 23.4167 33.8623C23.1812 34.1175 23.0438 34.4119 22.9849 34.7653C22.9064 35.256 22.9457 35.6683 23.1027 36.0216C23.2597 36.3553 23.5541 36.7283 23.9467 37.1406L25.2618 38.4754C25.8899 39.1036 26.3413 39.771 26.6357 40.4581C26.9301 41.1648 27.0087 41.9696 26.8516 42.9119C26.7339 43.6382 26.4591 44.2664 26.0469 44.8356C25.6347 45.4049 25.1047 45.8368 24.457 46.1509C23.8093 46.4649 23.1027 46.6416 22.3372 46.6416C20.924 46.6612 19.9426 46.2686 19.3734 45.5227Z" fill="#C6B5E2"/>
<path d="M31.4256 33.7052H29.0898L29.4628 31.4478H37.2158L36.8429 33.7052H34.5464L32.4462 46.4453H29.345L31.4256 33.7052Z" fill="#C6B5E2"/>
<path d="M40.2182 31.4478H43.6334L44.0652 46.4453H41.2192L41.1996 43.1474H38.805L37.6862 46.4453H34.7812L40.2182 31.4478ZM41.2192 41.2629L41.2977 35.2168L39.3938 41.2629H41.2192Z" fill="#C6B5E2"/>
<path d="M47.8919 40.4973L46.4395 31.4478H49.3444L50.0902 36.7283L52.4652 31.4478H55.2916L50.8754 40.4973L49.894 46.4453H46.9105L47.8919 40.4973Z" fill="#C6B5E2"/>
<path d="M62.3201 33.7052H59.9844L60.3573 31.4478H68.1103L67.7374 33.7052H65.4409L63.3407 46.4453H60.2395L62.3201 33.7052Z" fill="#C6B5E2"/>
<path d="M68.6795 46.0921C68.1103 45.7191 67.7373 45.1694 67.5999 44.4431C67.4625 43.7364 67.4822 42.8138 67.6588 41.6949L69.3468 31.4282H72.3695L70.603 42.1071C70.4852 42.8334 70.4852 43.3831 70.5834 43.7953C70.7011 44.2075 71.0152 44.4038 71.5648 44.4038C72.1143 44.4038 72.5069 44.2075 72.7424 43.7953C72.978 43.3831 73.1743 42.8334 73.292 42.1071L75.0585 31.4282H78.1009L76.3932 41.6949C76.2166 42.8138 75.9222 43.7168 75.5492 44.4431C75.1763 45.1498 74.6267 45.6994 73.9201 46.0921C73.2135 46.465 72.3106 46.6613 71.1722 46.6613C70.0927 46.6613 69.2487 46.465 68.6795 46.0921Z" fill="#C6B5E2"/>
<path d="M80.2778 31.4478H82.4369L84.5174 39.241L85.8129 31.4478H88.3841L85.911 46.4453H83.8108L81.8088 38.1417L80.4348 46.4453H77.8047L80.2778 31.4478Z" fill="#C6B5E2"/>
<path d="M90.6431 31.4478H97.2381L96.8848 33.5678H93.3518L92.6844 37.5528H95.4127L95.0594 39.6925H92.3311L91.546 44.4037H95.1183L94.7846 46.4846H88.1504L90.6431 31.4478Z" fill="#C6B5E2"/>
<path d="M98.8462 31.4478H102.556C103.832 31.4478 104.793 31.6048 105.461 31.9385C106.128 32.2722 106.56 32.763 106.737 33.45C106.933 34.1371 106.933 35.0401 106.756 36.159L105.853 41.6162C105.657 42.7548 105.363 43.6971 104.95 44.3841C104.538 45.0908 103.949 45.6012 103.184 45.9349C102.418 46.2686 101.417 46.4453 100.161 46.4453H96.373L98.8462 31.4478ZM100.475 44.3252C101.005 44.3252 101.417 44.2467 101.712 44.07C101.987 43.913 102.203 43.6578 102.32 43.3437C102.438 43.0296 102.556 42.5585 102.654 41.95L103.675 35.7468C103.773 35.1775 103.792 34.7456 103.773 34.4512C103.734 34.1567 103.616 33.9408 103.38 33.8034C103.164 33.666 102.772 33.5875 102.242 33.5875H101.594L99.8276 44.3056H100.475V44.3252Z" fill="#C6B5E2"/>
<path d="M107.268 43.795H109.957L109.525 46.4451H106.836L107.268 43.795ZM109.348 31.4868H112.175L109.289 42.7742H108.288L109.348 31.4868Z" fill="#C6B5E2"/>
<path d="M74.3117 146.874C75.3127 133.741 74.4098 122.297 72.2507 116.604C51.6218 129.305 29.3245 134.801 24.3979 135.92L22.9454 154.805C25.7522 155.708 34.4474 158.652 44.9287 163.717L44.8502 164.757C44.7324 166.347 43.3388 167.623 41.749 167.564L20.2957 166.916C18.7058 166.877 17.5085 165.523 17.6263 163.933L18.4507 153.136L20.0209 153.175L21.2378 137.314L11.6201 137.02C11.0706 137 10.5995 137.608 10.1873 138.59L7.0861 138.492C5.0448 138.433 4.08303 151.075 6.12434 151.114L9.22555 151.212C9.48071 152.213 9.85364 152.842 10.4032 152.861L15.2513 152.999L14.4269 163.795C14.1718 167.172 16.7038 169.998 20.0601 170.097L41.5134 170.744C44.752 170.843 47.5981 168.389 48.0299 165.189C54.3501 168.389 61.1217 172.295 67.5989 176.948C70.6216 171.49 73.291 160.105 74.3117 146.874Z" fill="#C6B5E2"/>
<path d="M77.7668 112.992C76.805 112.972 75.8433 113.64 74.9011 114.916C77.6294 119.725 78.8856 132.289 77.7668 146.972C76.648 161.715 73.4487 174.18 69.9941 178.754C70.0334 178.773 70.0727 178.813 70.1119 178.832C70.8381 180.069 71.6821 180.756 72.6046 180.795C77.0406 180.933 81.7905 165.857 83.2233 147.129C84.6366 128.422 82.2027 113.13 77.7668 112.992Z" fill="#C6B5E2"/>
<path d="M83.3983 22.6532C79.6886 22.6532 76.6855 19.6301 76.6855 15.9396C76.6855 12.2295 79.7082 9.22607 83.3983 9.22607C87.108 9.22607 90.111 12.2491 90.111 15.9396C90.111 19.6301 87.108 22.6532 83.3983 22.6532ZM83.3983 10.6591C80.4934 10.6591 78.1184 13.0344 78.1184 15.9396C78.1184 18.8449 80.4934 21.2202 83.3983 21.2202C86.3032 21.2202 88.6782 18.8449 88.6782 15.9396C88.6586 13.0344 86.3032 10.6591 83.3983 10.6591Z" fill="#C6B5E2"/>
</g>
<defs>
<radialGradient id="paint0_radial_44_10485" cx="0" cy="0" r="1" gradientUnits="userSpaceOnUse" gradientTransform="translate(155.788 172.949) scale(151.217 67.0452)">
<stop stop-color="#6B6B6B"/>
<stop offset="0.1554" stop-color="#939393"/>
<stop offset="0.3326" stop-color="#BABABA"/>
<stop offset="0.5085" stop-color="#D8D8D8"/>
<stop offset="0.6805" stop-color="#EEEEEE"/>
<stop offset="0.8465" stop-color="#FBFBFB"/>
<stop offset="1" stop-color="white"/>
</radialGradient>
<clipPath id="clip0_44_10485">
<rect width="307" height="240" fill="white"/>
</clipPath>
</defs>
</svg>
