<svg width="32" height="32" viewBox="0 0 32 32" fill="none" xmlns="http://www.w3.org/2000/svg">
<path d="M6.99981 11.9999C6.99905 11.8683 7.02428 11.7379 7.07404 11.616C7.12381 11.4942 7.19713 11.3834 7.28982 11.2899C7.38278 11.1962 7.49338 11.1218 7.61524 11.071C7.7371 11.0203 7.8678 10.9941 7.99981 10.9941C8.13183 10.9941 8.26253 11.0203 8.38439 11.071C8.50625 11.1218 8.61685 11.1962 8.70981 11.2899L15.9998 18.5899L23.2898 11.2899C23.4781 11.1016 23.7335 10.9958 23.9998 10.9958C24.1317 10.9958 24.2622 11.0218 24.3841 11.0723C24.5059 11.1227 24.6166 11.1967 24.7098 11.2899C24.8031 11.3832 24.877 11.4939 24.9275 11.6157C24.9779 11.7375 25.0039 11.8681 25.0039 11.9999C25.0039 12.2662 24.8981 12.5216 24.7098 12.7099L16.7098 20.7099C16.6169 20.8037 16.5063 20.8781 16.3844 20.9288C16.2625 20.9796 16.1318 21.0057 15.9998 21.0057C15.8678 21.0057 15.7371 20.9796 15.6152 20.9288C15.4934 20.8781 15.3828 20.8037 15.2898 20.7099L7.28982 12.7099C7.19713 12.6165 7.12381 12.5057 7.07404 12.3838C7.02428 12.262 6.99905 12.1315 6.99981 11.9999Z" fill="black"/>
</svg>
