<svg width="20" height="21" viewBox="0 0 20 21" fill="none" xmlns="http://www.w3.org/2000/svg">
<rect x="0.5" y="1.41309" width="19" height="19" rx="9.5" stroke="#8069BF"/>
<path d="M10 9.24642C9.78783 9.24642 9.58434 9.33422 9.43432 9.4905C9.28429 9.64678 9.2 9.85874 9.2 10.0798V15.0798C9.2 15.3008 9.28429 15.5127 9.43432 15.669C9.58434 15.8253 9.78783 15.9131 10 15.9131C10.2122 15.9131 10.4157 15.8253 10.5657 15.669C10.7157 15.5127 10.8 15.3008 10.8 15.0798V10.0798C10.8 9.85874 10.7157 9.64678 10.5657 9.4905C10.4157 9.33422 10.2122 9.24642 10 9.24642ZM10 5.91309C9.80222 5.91309 9.60888 5.97418 9.44443 6.08864C9.27998 6.2031 9.15181 6.36578 9.07612 6.55612C9.00043 6.74646 8.98063 6.95591 9.01922 7.15797C9.0578 7.36004 9.15304 7.54564 9.29289 7.69132C9.43275 7.837 9.61093 7.93621 9.80491 7.9764C9.99889 8.0166 10.2 7.99597 10.3827 7.91713C10.5654 7.83829 10.7216 7.70477 10.8315 7.53347C10.9414 7.36217 11 7.16077 11 6.95475C11 6.67849 10.8946 6.41353 10.7071 6.21818C10.5196 6.02283 10.2652 5.91309 10 5.91309Z" fill="#8069BF"/>
</svg>
