<svg width="32" height="32" viewBox="0 0 32 32" fill="none" xmlns="http://www.w3.org/2000/svg">
<g id="Pin-315281b1.svg">
<g id="Group">
<path id="Vector" d="M15.998 8C15.0091 8 14.0424 8.29325 13.2201 8.84265C12.3979 9.39206 11.757 10.173 11.3786 11.0866C11.0002 12.0002 10.9011 13.0055 11.0941 13.9755C11.287 14.9454 11.7632 15.8363 12.4625 16.5355C13.1617 17.2348 14.0526 17.711 15.0225 17.9039C15.9925 18.0969 16.9978 17.9978 17.9114 17.6194C18.825 17.241 19.6059 16.6001 20.1553 15.7779C20.7048 14.9556 20.998 13.9889 20.998 13C20.998 11.6739 20.4712 10.4021 19.5335 9.46447C18.5959 8.52678 17.3241 8 15.998 8ZM15.998 16C15.4047 16 14.8246 15.8241 14.3313 15.4944C13.8379 15.1648 13.4534 14.6962 13.2264 14.1481C12.9993 13.5999 12.9399 12.9967 13.0556 12.4147C13.1714 11.8328 13.4571 11.2982 13.8767 10.8787C14.2962 10.4591 14.8308 10.1734 15.4127 10.0576C15.9947 9.94189 16.5979 10.0013 17.1461 10.2284C17.6942 10.4554 18.1628 10.8399 18.4924 11.3333C18.8221 11.8266 18.998 12.4067 18.998 13C18.998 13.7956 18.6819 14.5587 18.1193 15.1213C17.5567 15.6839 16.7936 16 15.998 16ZM15.998 2C13.0816 2.00331 10.2857 3.1633 8.22353 5.22548C6.16135 7.28766 5.00136 10.0836 4.99805 13C4.99805 16.925 6.8118 21.085 10.248 25.0312C11.792 26.8145 13.5298 28.4202 15.4292 29.8188C15.5974 29.9365 15.7977 29.9997 16.003 29.9997C16.2083 29.9997 16.4086 29.9365 16.5768 29.8188C18.4727 28.4196 20.2071 26.8139 21.748 25.0312C25.1792 21.085 26.998 16.925 26.998 13C26.9947 10.0836 25.8347 7.28766 23.7725 5.22548C21.7103 3.1633 18.9144 2.00331 15.998 2ZM15.998 27.75C13.9318 26.125 6.99805 20.1562 6.99805 13C6.99805 10.6131 7.94626 8.32387 9.63409 6.63604C11.3219 4.94821 13.6111 4 15.998 4C18.3849 4 20.6741 4.94821 22.362 6.63604C24.0498 8.32387 24.998 10.6131 24.998 13C24.998 20.1537 18.0642 26.125 15.998 27.75Z" fill="black"/>
</g>
</g>
</svg>
