<svg width="32" height="32" viewBox="0 0 32 32" fill="none" xmlns="http://www.w3.org/2000/svg">
<g id="Envelope-5019ccc7.svg">
<g id="Group">
<path id="Vector" d="M27.998 6H3.99805C3.73283 6 3.47848 6.10536 3.29094 6.29289C3.10341 6.48043 2.99805 6.73478 2.99805 7V24C2.99805 24.5304 3.20876 25.0391 3.58384 25.4142C3.95891 25.7893 4.46762 26 4.99805 26H26.998C27.5284 26 28.0371 25.7893 28.4122 25.4142C28.7873 25.0391 28.998 24.5304 28.998 24V7C28.998 6.73478 28.8926 6.48043 28.7051 6.29289C28.5176 6.10536 28.2632 6 27.998 6ZM15.998 16.6437L6.5693 8H25.4267L15.998 16.6437ZM12.3367 16L4.99805 22.7262V9.27375L12.3367 16ZM13.8168 17.3563L15.3168 18.7375C15.5012 18.9069 15.7426 19.0008 15.993 19.0008C16.2434 19.0008 16.4848 18.9069 16.6692 18.7375L18.1692 17.3563L25.4192 24H6.5693L13.8168 17.3563ZM19.6592 16L26.998 9.2725V22.7275L19.6592 16Z" fill="black"/>
</g>
</g>
</svg>
