<svg width="382" height="381" viewBox="0 0 382 381" fill="none" xmlns="http://www.w3.org/2000/svg">
<path d="M48.125 47.625L333.875 333.375M79.875 79.375V282.575C79.875 300.357 79.875 309.248 83.3356 316.04C86.3795 322.013 91.2366 326.871 97.2108 329.914C104.002 333.375 112.893 333.375 130.675 333.375H270.375C287.911 333.375 302.125 319.161 302.125 301.625M302.125 142.875L206.875 47.625M302.125 142.875H232.275C223.383 142.875 218.938 142.875 215.543 141.145C212.555 139.623 210.128 137.194 208.605 134.207C206.875 130.811 206.875 126.366 206.875 117.475V47.625M302.125 142.875V222.25M206.875 47.625H135.438" stroke="#614298" stroke-width="31.75" stroke-linecap="round" stroke-linejoin="round"/>
</svg>
