<svg width="66" height="67" viewBox="0 0 66 67" fill="none" xmlns="http://www.w3.org/2000/svg">
<g clip-path="url(#clip0_80_916)">
<path d="M7.04503 46.3391C11.9495 48.386 17.78 46.6044 20.769 42.2216C20.7695 42.2211 20.77 42.2201 20.7705 42.2196C20.771 42.2191 20.771 42.2191 20.771 42.2186C22.0596 40.3293 22.7404 38.1173 22.7404 35.8211C22.7404 31.6866 20.5318 27.9276 16.9542 25.915V23.4945C16.9542 21.6319 15.4385 20.1162 13.5754 20.1162H9.16644C7.30334 20.1162 5.78819 21.6319 5.78819 23.4945V28.8058C5.78819 30.7067 6.74341 32.3875 8.19864 33.3961V34.5678H7.73689C5.27911 34.5678 3.16576 36.0699 2.26492 38.2039C2.06401 37.4324 1.96028 36.6333 1.96028 35.8211C1.96028 33.601 2.74782 31.4464 4.17838 29.7535C4.52733 29.3401 4.47546 28.7217 4.06206 28.3723C3.64865 28.0228 3.0303 28.0752 2.68085 28.4886C0.952194 30.5345 0 33.1388 0 35.8211C0 38.1193 0.681793 40.3323 1.97136 42.2206C3.22316 44.0565 4.9931 45.4896 7.04503 46.3391ZM14.3751 36.5286H15.005C17.1969 36.5286 18.9804 38.3121 18.9804 40.504V41.3555C18.2664 42.3364 17.3782 43.1632 16.3615 43.7997V42.2035C16.3615 41.6622 15.9229 41.2231 15.3811 41.2231C14.8398 41.2231 14.4012 41.6617 14.4012 42.2035V44.6139L12.7683 38.3595C13.5175 37.9879 14.1026 37.3287 14.3751 36.5286ZM11.6902 41.99L12.5064 45.1175H11.0321L11.6902 41.99ZM20.7801 35.8211C20.7801 36.6328 20.6769 37.4309 20.476 38.2014C19.5751 36.0684 17.4618 34.5678 15.005 34.5678H14.5432V33.3966C15.9985 32.3875 16.9542 30.7067 16.9542 28.8058V28.2459C19.344 30.0022 20.7801 32.7893 20.7801 35.8211ZM7.74847 23.4945C7.74847 22.7125 8.38445 22.0765 9.16644 22.0765H13.5754C14.3574 22.0765 14.9934 22.713 14.9934 23.4945V24.7271C14.6359 24.5615 14.2446 24.4572 13.8333 24.426C13.8227 23.8933 13.3886 23.4648 12.8539 23.4648C12.3226 23.4648 11.8911 23.8877 11.875 24.4149H9.16644C8.66039 24.4149 8.1795 24.5267 7.74847 24.7271V23.4945ZM7.74847 27.7937C7.74847 27.0117 8.38445 26.3752 9.16644 26.3752H13.5754C14.3574 26.3752 14.9934 27.0117 14.9934 27.7937V28.8058C14.9934 30.8033 13.3685 32.4288 11.3709 32.4288C9.3734 32.4288 7.74797 30.8033 7.74797 28.8058V27.7937H7.74847ZM11.3709 34.3891C11.7874 34.3891 12.1927 34.3417 12.583 34.2551V35.4968C12.5825 35.5094 12.582 35.522 12.582 35.5346C12.5724 36.1922 12.0296 36.727 11.3714 36.727C10.7128 36.727 10.1695 36.1922 10.1599 35.5346C10.1599 35.522 10.1594 35.5094 10.1589 35.4968V34.2551C10.5492 34.3417 10.9545 34.3891 11.3709 34.3891ZM7.73689 36.5286H8.36682C8.69009 37.4793 9.45598 38.2306 10.4127 38.5372L9.06422 44.9488C8.84065 44.8924 8.6196 44.8254 8.40106 44.7524V42.203C8.40106 41.6617 7.96198 41.2231 7.42067 41.2231C6.87936 41.2231 6.44078 41.6617 6.44078 42.203V43.8375C5.39896 43.1965 4.48956 42.3576 3.76144 41.357V40.504C3.76144 38.3121 5.54498 36.5286 7.73689 36.5286Z" fill="#4A2D7F"/>
<path d="M64.0306 42.2186C65.3191 40.3293 65.9999 38.1173 65.9999 35.8211C65.9999 35.2798 65.5613 34.8412 65.0195 34.8412C64.4782 34.8412 64.0396 35.2798 64.0396 35.8211C64.0396 36.6328 63.9359 37.4309 63.7355 38.2014C62.8342 36.0684 60.7213 34.5678 58.264 34.5678H57.8028V33.3966C59.258 32.3875 60.2132 30.7067 60.2132 28.8058V28.2469C61.739 29.3683 62.8926 30.9202 63.522 32.7349C63.6625 33.1398 64.0421 33.3941 64.448 33.3941C64.5547 33.3941 64.663 33.3764 64.7693 33.3397C65.2809 33.1619 65.5518 32.6035 65.374 32.0924C64.4601 29.4569 62.6327 27.2791 60.2132 25.9175V23.4945C60.2132 21.6319 58.6976 20.1162 56.8345 20.1162H52.4255C50.5629 20.1162 49.0472 21.6319 49.0472 23.4945V25.916C45.462 27.9327 43.259 31.673 43.259 35.8211C43.259 38.1193 43.9408 40.3323 45.2304 42.2206C46.4872 44.0636 48.237 45.4851 50.291 46.3335C50.2955 46.335 50.2995 46.3371 50.3041 46.3391C50.3046 46.3391 50.3056 46.3396 50.3066 46.3401C51.6777 46.905 53.1324 47.1916 54.6295 47.1916C56.1471 47.1916 57.622 46.897 59.0138 46.3154C59.0193 46.3129 59.0249 46.3104 59.0299 46.3083C61.0577 45.4559 62.7863 44.0429 64.0285 42.2211L64.0301 42.2196C64.0301 42.2191 64.0306 42.2186 64.0306 42.2186ZM62.24 40.504V41.3555C62.2324 41.3656 62.2259 41.3757 62.2183 41.3857C62.2138 41.3923 62.2093 41.3983 62.2042 41.4049C61.4967 42.3641 60.6206 43.1733 59.6206 43.7992V42.203C59.6206 41.6617 59.182 41.2231 58.6407 41.2231C58.0994 41.2231 57.6603 41.6617 57.6603 42.203V44.7303C56.6874 45.0611 55.6713 45.2313 54.6295 45.2313C53.6088 45.2313 52.6133 45.0681 51.6601 44.7504V42.203C51.6601 41.6617 51.2215 41.2231 50.6802 41.2231C50.1384 41.2231 49.6998 41.6617 49.6998 42.203V43.8375C48.658 43.1965 47.7491 42.3576 47.0205 41.357V40.504C47.0205 38.3121 48.804 36.5286 50.9964 36.5286H51.6259C52.0524 37.7804 53.2437 38.6878 54.631 38.6878C56.0172 38.6878 57.2086 37.7804 57.6346 36.5286H58.264C60.4564 36.5286 62.24 38.3121 62.24 40.504ZM55.8425 35.4968C55.842 35.5094 55.8415 35.522 55.8415 35.5346C55.8319 36.1922 55.2891 36.727 54.631 36.727C53.9724 36.727 53.4285 36.1922 53.4195 35.5346C53.419 35.522 53.419 35.5094 53.418 35.4968V34.2551C53.8087 34.3417 54.2141 34.3891 54.6305 34.3891C55.0469 34.3891 55.4523 34.3417 55.8425 34.2551V35.4968ZM58.2529 28.8058C58.2529 30.8033 56.628 32.4288 54.6305 32.4288C52.6329 32.4288 51.0075 30.8033 51.0075 28.8058V27.7937C51.0075 27.0117 51.644 26.3752 52.4255 26.3752H56.8345C57.6165 26.3752 58.2529 27.0117 58.2529 27.7937V28.8058ZM51.0075 23.4945C51.0075 22.7125 51.644 22.0765 52.4255 22.0765H56.835C57.617 22.0765 58.2529 22.713 58.2529 23.4945V24.7271C57.8954 24.5615 57.5042 24.4572 57.0923 24.426C57.0822 23.8933 56.6482 23.4648 56.1134 23.4648C55.5822 23.4648 55.1506 23.8877 55.1345 24.4149H52.4255C51.9194 24.4149 51.439 24.5267 51.0075 24.7271V23.4945ZM49.0472 28.2423V28.8058C49.0472 30.7067 50.0029 32.3875 51.4577 33.3966V34.5683H50.9964C48.5387 34.5683 46.4248 36.0699 45.5245 38.2039C45.3235 37.433 45.2198 36.6338 45.2198 35.8211C45.2198 32.7767 46.6529 29.9967 49.0472 28.2423Z" fill="#4A2D7F"/>
<path d="M11.3256 18.0472C11.8674 18.0472 12.306 17.6081 12.306 17.0668V13.4831C12.306 9.22565 15.7698 5.7618 20.0273 5.7618H46.1454C50.4028 5.7618 53.8662 9.22565 53.8662 13.4831V16.4137C53.8662 16.955 54.3053 17.3936 54.8466 17.3936C55.3879 17.3936 55.827 16.955 55.827 16.4137V13.4831C55.827 8.14455 51.4839 3.80151 46.1454 3.80151H20.0273C14.6887 3.80151 10.3457 8.14455 10.3457 13.4831V17.0668C10.3457 17.6081 10.7843 18.0472 11.3256 18.0472Z" fill="#4A2D7F"/>
<path d="M54.8466 48.7601C54.3053 48.7601 53.8662 49.1987 53.8662 49.74V53.3242C53.8662 57.5816 50.4028 61.0449 46.1454 61.0449H20.0273C15.7698 61.0449 12.306 57.5816 12.306 53.3242V50.3936C12.306 49.8522 11.8674 49.4137 11.3256 49.4137C10.7843 49.4137 10.3457 49.8522 10.3457 50.3936V53.3242C10.3457 58.6627 14.6887 63.0057 20.0273 63.0057H46.1454C51.4839 63.0057 55.827 58.6627 55.827 53.3242V49.74C55.827 49.1987 55.3879 48.7601 54.8466 48.7601Z" fill="#4A2D7F"/>
<path d="M30.4979 29.3753C29.9878 29.0807 29.379 29.0807 28.8689 29.3753C28.3588 29.6694 28.0547 30.1971 28.0547 30.7857V39.0271C28.0547 39.6163 28.3588 40.1435 28.8689 40.4381C29.1242 40.5851 29.4037 40.6586 29.6831 40.6586C29.9631 40.6586 30.2426 40.5851 30.4979 40.4381L37.635 36.3171C38.1451 36.0225 38.4493 35.4953 38.4493 34.9067C38.4493 34.3175 38.1451 33.7903 37.635 33.4958L30.4979 29.3753ZM30.015 38.4531V31.3602L36.1577 34.9067L30.015 38.4531Z" fill="#4A2D7F"/>
</g>
<defs>
<clipPath id="clip0_80_916">
<rect width="66" height="66" fill="white" transform="translate(0 0.449951)"/>
</clipPath>
</defs>
</svg>
