<svg width="65" height="66" viewBox="0 0 65 66" fill="none" xmlns="http://www.w3.org/2000/svg">
<path d="M51.9936 51.9128C51.9936 52.333 51.6521 52.6745 51.2319 52.6745H37.6568C37.2366 52.6745 36.8951 52.333 36.8951 51.9128C36.8951 51.4925 37.2366 51.151 37.6568 51.151H51.2319C51.6534 51.151 51.9936 51.4925 51.9936 51.9128ZM51.2319 55.8508H37.0106C36.5904 55.8508 36.2489 56.1923 36.2489 56.6126C36.2489 57.0328 36.5904 57.3743 37.0106 57.3743H51.2319C51.6521 57.3743 51.9936 57.0328 51.9936 56.6126C51.9936 56.1923 51.6534 55.8508 51.2319 55.8508ZM13.7681 48.697H31.4615C31.8817 48.697 32.2232 48.3555 32.2232 47.9353C32.2232 47.5151 31.8817 47.1736 31.4615 47.1736H13.7681C13.3479 47.1736 13.0063 47.5151 13.0063 47.9353C13.0063 48.3555 13.3466 48.697 13.7681 48.697ZM32.2232 52.1692C32.2232 51.749 31.8817 51.4075 31.4615 51.4075H13.7681C13.3479 51.4075 13.0063 51.749 13.0063 52.1692C13.0063 52.5894 13.3479 52.9309 13.7681 52.9309H31.4615C31.8817 52.9309 32.2232 52.5894 32.2232 52.1692ZM26.1968 12.1675C26.1968 8.69157 29.024 5.86432 32.5 5.86432C35.976 5.86432 38.8032 8.69157 38.8032 12.1675C38.8032 15.6435 35.976 18.4708 32.5 18.4708C29.024 18.4708 26.1968 15.6422 26.1968 12.1675ZM27.7202 12.1675C27.7202 14.8031 29.8645 16.9473 32.5 16.9473C35.1355 16.9473 37.2798 14.8031 37.2798 12.1675C37.2798 9.53199 35.1355 7.38776 32.5 7.38776C29.8645 7.38776 27.7202 9.53199 27.7202 12.1675ZM63.0957 29.7112V33.5896C63.0957 34.0098 62.7542 34.3513 62.334 34.3513H57.977V50.6508C57.977 51.0711 57.6354 51.4126 57.2152 51.4126H55.2563V58.1081C55.2563 59.7229 53.9437 61.0356 52.3288 61.0356H32.4429C30.828 61.0356 29.5153 59.7229 29.5153 58.1081V57.0582H12.6712C11.0563 57.0582 9.74365 55.7455 9.74365 54.1306V51.4126H7.78477C7.36455 51.4126 7.02305 51.0711 7.02305 50.6508V34.3513H2.66602C2.2458 34.3513 1.9043 34.0098 1.9043 33.5896V29.7112C1.9043 24.8679 5.68496 20.7623 10.5104 20.3624C10.7745 20.3408 11.0322 20.4576 11.1896 20.6734L13.339 23.6251L15.4883 20.6734C15.6444 20.4588 15.9021 20.3408 16.1675 20.3624C18.3422 20.5426 20.409 21.5049 21.9692 23.0385C23.6983 20.7597 26.344 19.1969 29.3604 18.9468C29.6258 18.9253 29.8822 19.0421 30.0396 19.2579L32.5025 22.6399L34.9654 19.2579C35.1216 19.0433 35.378 18.9253 35.6446 18.9468C38.661 19.1969 41.308 20.7597 43.0358 23.0385C44.5961 21.5049 46.6616 20.5426 48.8376 20.3624C49.1017 20.3408 49.3594 20.4576 49.5168 20.6734L51.6661 23.6251L53.8154 20.6734C53.9716 20.4588 54.228 20.3408 54.4946 20.3624C59.315 20.761 63.0957 24.8679 63.0957 29.7112ZM21.3789 29.2707V32.8266H23.9307V28.2804C23.9307 27.8602 24.2722 27.5187 24.6924 27.5187C25.1126 27.5187 25.4541 27.8602 25.4541 28.2804V32.8266H39.5459V28.2804C39.5459 27.8602 39.8874 27.5187 40.3076 27.5187C40.7278 27.5187 41.0693 27.8602 41.0693 28.2804V32.8266H43.6211V29.2707C43.6211 24.8502 40.2784 21.0822 35.9354 20.5096L33.1157 24.3817C32.9723 24.5785 32.7437 24.6953 32.5 24.6953C32.2562 24.6953 32.0277 24.5785 31.8843 24.3817L29.0646 20.5096C24.7229 21.0822 21.3789 24.8514 21.3789 29.2707ZM3.42773 32.8279H5.56436V28.8225C5.56436 28.4023 5.90586 28.0608 6.32607 28.0608C6.74629 28.0608 7.08779 28.4023 7.08779 28.8225V32.8279H19.8555V29.2719C19.8555 27.5035 20.3138 25.8252 21.1187 24.3525C19.8847 23.0373 18.2279 22.1727 16.4582 21.9277L13.9534 25.3669C13.81 25.5636 13.5814 25.6804 13.3377 25.6804C13.0939 25.6804 12.8654 25.5636 12.722 25.3669L10.2172 21.9264C6.37686 22.4546 3.42773 25.796 3.42773 29.7112V32.8279ZM12.6712 55.5347H32.5571C33.3315 55.5347 33.9612 54.905 33.9612 54.1306V45.9307C33.9612 45.1563 33.3315 44.5266 32.5571 44.5266H22.0137C21.7509 44.5266 21.5008 44.4416 21.2926 44.2803L15.2077 39.5691V43.3498C15.2077 43.9985 14.6796 44.5266 14.0309 44.5266H12.6725C11.898 44.5266 11.2684 45.1563 11.2684 45.9307V54.1306C11.2671 54.905 11.8968 55.5347 12.6712 55.5347ZM53.7329 49.9094C53.7329 49.135 53.1032 48.5053 52.3288 48.5053H50.9704C50.3217 48.5053 49.7936 47.9772 49.7936 47.3285V43.5478L43.7087 48.259C43.5005 48.4203 43.2517 48.5053 42.9876 48.5053H35.4847V54.1306C35.4847 55.7455 34.172 57.0582 32.5571 57.0582H31.0388V58.1081C31.0388 58.8825 31.6685 59.5122 32.4429 59.5122H52.3288C53.1032 59.5122 53.7329 58.8825 53.7329 58.1081V49.9094ZM56.4535 34.3513H44.3828H20.6172H8.54648V49.8891H9.74365V45.9307C9.74365 44.3159 11.0576 43.0032 12.6712 43.0032H13.683V38.862C13.683 38.41 13.9356 38.005 14.3419 37.8057C14.7481 37.6064 15.2229 37.6546 15.581 37.9314L22.1305 43.0032H32.5559C34.1707 43.0032 35.4834 44.3159 35.4834 45.9307V46.9806H42.867L49.4165 41.9089C49.7745 41.6321 50.2493 41.5839 50.6556 41.7832C51.0618 41.9825 51.3145 42.3875 51.3145 42.8394V46.9806H52.3263C53.9335 46.9806 55.2424 48.2832 55.2538 49.8879H56.451V34.3513H56.4535ZM61.5723 29.7112C61.5723 25.796 58.6231 22.4546 54.7828 21.9264L52.278 25.3669C52.1346 25.5636 51.9061 25.6804 51.6623 25.6804C51.4186 25.6804 51.19 25.5636 51.0466 25.3669L48.5418 21.9277C46.7721 22.174 45.1153 23.0373 43.8813 24.3525C44.685 25.8252 45.1445 27.5035 45.1445 29.2719V32.8279H57.9122V28.8225C57.9122 28.4023 58.2537 28.0608 58.6739 28.0608C59.0941 28.0608 59.4356 28.4023 59.4356 28.8225V32.8279H61.5723V29.7112ZM45.924 14.3499C45.924 11.1862 48.4986 8.61158 51.6623 8.61158C54.826 8.61158 57.4006 11.1862 57.4006 14.3499C57.4006 17.5135 54.826 20.0881 51.6623 20.0881C48.4986 20.0881 45.924 17.5148 45.924 14.3499ZM47.4475 14.3499C47.4475 16.6744 49.3378 18.5647 51.6623 18.5647C53.9868 18.5647 55.8771 16.6744 55.8771 14.3499C55.8771 12.0254 53.9868 10.135 51.6623 10.135C49.3378 10.135 47.4475 12.0254 47.4475 14.3499ZM7.59941 14.3499C7.59941 11.1862 10.174 8.61158 13.3377 8.61158C16.5014 8.61158 19.076 11.1862 19.076 14.3499C19.076 17.5135 16.5014 20.0881 13.3377 20.0881C10.174 20.0881 7.59941 17.5148 7.59941 14.3499ZM9.12285 14.3499C9.12285 16.6744 11.0132 18.5647 13.3377 18.5647C15.6622 18.5647 17.5525 16.6744 17.5525 14.3499C17.5525 12.0254 15.6622 10.135 13.3377 10.135C11.0132 10.135 9.12285 12.0254 9.12285 14.3499Z" fill="#4A2D7F" stroke="#4A2D7F" stroke-width="0.5"/>
</svg>
