<svg width="66" height="67" viewBox="0 0 66 67" fill="none" xmlns="http://www.w3.org/2000/svg">
<g clip-path="url(#clip0_81_1018)">
<path d="M50.8935 35.21C50.5121 35.21 50.1895 34.9166 50.1601 34.5353C50.1308 34.1246 50.4241 33.7726 50.8348 33.7433C55.3668 33.362 58.9308 29.5046 58.9308 24.9433C58.9308 20.074 54.9708 16.0993 50.0868 16.0993C49.3535 16.0993 48.6348 16.1873 47.9308 16.3633C47.6814 16.422 47.4321 16.3633 47.2561 16.1873C47.0801 16.0113 46.9921 15.762 47.0361 15.5126C47.1681 14.838 47.2268 14.1486 47.2268 13.4593C47.2268 7.40195 42.2988 2.48862 36.2561 2.48862C31.8708 2.48862 27.9108 5.09929 26.1801 9.11795C26.0188 9.48462 25.5935 9.66062 25.2268 9.49929C24.1415 9.04462 22.9828 8.80995 21.7948 8.80995C17.4681 8.80995 13.8014 11.9046 13.0828 16.1726C13.0388 16.422 12.8774 16.6273 12.6281 16.73C9.24012 18.1086 7.06945 21.3206 7.06945 24.9433C7.06945 29.5046 10.6188 33.3766 15.1655 33.7433C15.5761 33.7726 15.8695 34.1246 15.8401 34.5353C15.8108 34.946 15.4588 35.2393 15.0481 35.21C12.4814 34.99 10.1055 33.8313 8.34545 31.9393C6.58545 30.0326 5.60278 27.554 5.60278 24.9433C5.60278 20.8513 7.97878 17.214 11.6748 15.542C12.6721 10.7753 16.8521 7.35795 21.7655 7.35795C22.9095 7.35795 24.0388 7.54862 25.1095 7.91529C27.2068 3.72062 31.5041 1.03662 36.2415 1.03662C43.1055 1.03662 48.6788 6.60995 48.6788 13.474C48.6788 13.8993 48.6641 14.3246 48.6201 14.75C49.1041 14.6766 49.5881 14.6473 50.0868 14.6473C55.7628 14.6473 60.3974 19.2673 60.3974 24.958C60.3974 27.554 59.4295 30.0473 57.6548 31.954C55.8948 33.846 53.5188 35.0193 50.9521 35.2246C50.9375 35.21 50.9081 35.21 50.8935 35.21Z" fill="#4A2D7F" stroke="#4A2D7F" stroke-width="0.5"/>
<path d="M15.1069 49.4073C14.7109 49.4073 14.3882 49.0993 14.3735 48.7033C14.3735 48.63 14.3735 48.5713 14.3735 48.498V26.7766C14.3735 24.034 16.6029 21.8046 19.3455 21.8046H23.5842C23.9949 21.8046 24.3175 22.1273 24.3175 22.538C24.3175 22.9486 23.9949 23.2713 23.5842 23.2713H19.3455C17.4095 23.2713 15.8402 24.8406 15.8402 26.7766V48.5126V48.6593C15.8549 49.07 15.5469 49.4073 15.1362 49.422C15.1362 49.4073 15.1215 49.4073 15.1069 49.4073Z" fill="#4A2D7F" stroke="#4A2D7F" stroke-width="0.5"/>
<path d="M50.8935 45.6673C50.4828 45.6673 50.1602 45.3446 50.1602 44.934V23.2713H24.3175V44.934C24.3175 45.3446 23.9948 45.6673 23.5842 45.6673C23.1735 45.6673 22.8508 45.3446 22.8508 44.934V22.538C22.8508 22.1273 23.1735 21.8046 23.5842 21.8046H50.8935C51.3042 21.8046 51.6268 22.1273 51.6268 22.538V44.934C51.6268 45.33 51.3042 45.6673 50.8935 45.6673Z" fill="#4A2D7F" stroke="#4A2D7F" stroke-width="0.5"/>
<path d="M50.8935 53.4846H19.0229C16.4562 53.4846 14.3735 51.402 14.3735 48.8353C14.3735 46.2686 16.4562 44.186 19.0229 44.186H50.8935C51.3042 44.186 51.6269 44.5086 51.6269 44.9193V52.7366C51.6269 53.162 51.3042 53.4846 50.8935 53.4846ZM19.0229 45.6673C17.2775 45.6673 15.8402 47.09 15.8402 48.85C15.8402 50.61 17.2629 52.0326 19.0229 52.0326H50.1602V45.682L19.0229 45.6673Z" fill="#4A2D7F" stroke="#4A2D7F" stroke-width="0.5"/>
<path d="M45.0268 34.2566H29.4508C28.4241 34.2566 27.5881 33.4206 27.5881 32.394V27.4953C27.5881 26.4686 28.4241 25.6326 29.4508 25.6326H45.0268C46.0535 25.6326 46.8895 26.4686 46.8895 27.4953V32.394C46.8895 33.4206 46.0535 34.2566 45.0268 34.2566ZM29.4508 27.0993C29.2455 27.0993 29.0548 27.2753 29.0548 27.4953V32.394C29.0548 32.5993 29.2308 32.79 29.4508 32.79H45.0268C45.2468 32.79 45.4228 32.614 45.4228 32.394V27.4953C45.4228 27.29 45.2468 27.0993 45.0268 27.0993H29.4508Z" fill="#4A2D7F" stroke="#4A2D7F" stroke-width="0.5"/>
<path d="M46.1561 37.9673H28.3215C27.9108 37.9673 27.5881 37.6446 27.5881 37.2339C27.5881 36.8233 27.9108 36.5006 28.3215 36.5006H46.1415C46.5521 36.5006 46.8748 36.8233 46.8748 37.2339C46.8748 37.6446 46.5668 37.9673 46.1561 37.9673Z" fill="#4A2D7F" stroke="#4A2D7F" stroke-width="0.5"/>
<path d="M46.1561 41.5313H28.3215C27.9108 41.5313 27.5881 41.2086 27.5881 40.798C27.5881 40.3873 27.9108 40.0646 28.3215 40.0646H46.1415C46.5521 40.0646 46.8748 40.3873 46.8748 40.798C46.8748 41.2086 46.5668 41.5313 46.1561 41.5313Z" fill="#4A2D7F" stroke="#4A2D7F" stroke-width="0.5"/>
<path d="M50.8935 49.5686H33.0002C32.5895 49.5686 32.2668 49.2459 32.2668 48.8353C32.2668 48.4246 32.5895 48.1019 33.0002 48.1019H50.8935C51.3042 48.1019 51.6268 48.4246 51.6268 48.8353C51.6268 49.2459 51.3042 49.5686 50.8935 49.5686Z" fill="#4A2D7F" stroke="#4A2D7F" stroke-width="0.5"/>
<path d="M34.9509 60.3339C34.5402 60.3339 34.2175 60.0113 34.2175 59.6006V52.7513C34.2175 52.3406 34.5402 52.0179 34.9509 52.0179C35.3615 52.0179 35.6842 52.3406 35.6842 52.7513V59.6006C35.6842 59.9966 35.3615 60.3339 34.9509 60.3339Z" fill="#4A2D7F" stroke="#4A2D7F" stroke-width="0.5"/>
<path d="M34.9509 65.8633C33.0149 65.8633 31.4456 64.2939 31.4456 62.3579C31.4456 60.4219 33.0149 58.8526 34.9509 58.8526C36.8869 58.8526 38.4562 60.4219 38.4562 62.3579C38.4562 64.2939 36.8869 65.8633 34.9509 65.8633ZM34.9509 60.3339C33.8362 60.3339 32.9122 61.2433 32.9122 62.3726C32.9122 63.5019 33.8216 64.4113 34.9509 64.4113C36.0802 64.4113 36.9896 63.5019 36.9896 62.3726C36.9896 61.2433 36.0802 60.3339 34.9509 60.3339Z" fill="#4A2D7F" stroke="#4A2D7F" stroke-width="0.5"/>
<path d="M58.5202 63.0913H37.7229C37.3122 63.0913 36.9895 62.7686 36.9895 62.358C36.9895 61.9473 37.3122 61.6246 37.7229 61.6246H58.5202C58.9309 61.6246 59.2535 61.9473 59.2535 62.358C59.2535 62.7686 58.9309 63.0913 58.5202 63.0913ZM32.1789 63.0913H11.3815C10.9709 63.0913 10.6482 62.7686 10.6482 62.358C10.6482 61.9473 10.9709 61.6246 11.3815 61.6246H32.1789C32.5895 61.6246 32.9122 61.9473 32.9122 62.358C32.9122 62.7686 32.5895 63.0913 32.1789 63.0913Z" fill="#4A2D7F" stroke="#4A2D7F" stroke-width="0.5"/>
</g>
<defs>
<clipPath id="clip0_81_1018">
<rect width="66" height="66" fill="white" transform="translate(0 0.449951)"/>
</clipPath>
</defs>
</svg>
