<svg width="77" height="78" viewBox="0 0 77 78" fill="none" xmlns="http://www.w3.org/2000/svg">
<path d="M9.67255 18.9968C11.0388 18.9952 12.3845 18.6634 13.595 18.0299C14.8055 17.3964 15.8451 16.4797 16.6252 15.3581C16.7597 15.1649 16.8346 14.9364 16.8406 14.7011C16.8466 14.4657 16.7833 14.2338 16.6588 14.034C16.5342 13.8343 16.3537 13.6754 16.1397 13.5773C15.9257 13.4791 15.6876 13.4459 15.4549 13.4817C14.5894 13.6254 13.703 13.5781 12.8577 13.343C12.0124 13.1079 11.2287 12.6908 10.5617 12.1209C9.89462 11.551 9.36027 10.8421 8.9961 10.0439C8.63194 9.2457 8.44677 8.3775 8.45357 7.50016C8.45223 6.26386 8.83125 5.05706 9.53919 4.04352C9.67384 3.85019 9.74876 3.62158 9.75466 3.38605C9.76055 3.15052 9.69715 2.91845 9.57234 2.71862C9.44753 2.5188 9.26679 2.36002 9.05256 2.26199C8.83832 2.16395 8.60001 2.13098 8.36721 2.16717C6.26003 2.49492 4.3542 3.60591 3.0307 5.27803C1.70721 6.95015 1.06358 9.06018 1.22849 11.1863C1.3934 13.3124 2.35469 15.298 3.92019 16.746C5.48568 18.1941 7.54004 18.9979 9.67255 18.9968ZM6.28758 5.49339C6.02064 6.59037 5.97561 7.72964 6.15511 8.84428C6.33462 9.95892 6.73505 11.0264 7.33289 11.9842C7.93073 12.9419 8.71392 13.7705 9.63646 14.4213C10.559 15.0721 11.6023 15.532 12.705 15.774C11.3437 16.5603 9.7302 16.7872 8.20483 16.4067C6.67946 16.0261 5.36153 15.068 4.52905 13.7344C3.69657 12.4008 3.41464 10.796 3.74272 9.25848C4.0708 7.72098 4.98325 6.37103 6.28758 5.49339Z" fill="#614298"/>
<path d="M66.1719 5.76245C64.9821 5.76245 63.819 6.11526 62.8298 6.77627C61.8405 7.43727 61.0695 8.37678 60.6142 9.476C60.1589 10.5752 60.0397 11.7847 60.2718 12.9517C60.504 14.1186 61.0769 15.1905 61.9182 16.0318C62.7595 16.8731 63.8314 17.446 64.9983 17.6781C66.1652 17.9102 67.3747 17.7911 68.474 17.3358C69.5732 16.8805 70.5127 16.1094 71.1737 15.1202C71.8347 14.1309 72.1875 12.9679 72.1875 11.7781C72.1856 10.1832 71.5512 8.6542 70.4235 7.52646C69.2958 6.39871 67.7667 5.76432 66.1719 5.76245ZM66.1719 15.3875C65.458 15.3875 64.7602 15.1758 64.1666 14.7792C63.5731 14.3826 63.1104 13.8189 62.8373 13.1593C62.5641 12.4998 62.4926 11.7741 62.6319 11.0739C62.7711 10.3738 63.1149 9.73064 63.6197 9.22586C64.1244 8.72108 64.7676 8.37732 65.4677 8.23805C66.1679 8.09879 66.8936 8.17026 67.5531 8.44345C68.2127 8.71663 68.7764 9.17926 69.173 9.77281C69.5696 10.3664 69.7813 11.0642 69.7813 11.7781C69.7802 12.735 69.3996 13.6525 68.7229 14.3291C68.0463 15.0058 67.1288 15.3864 66.1719 15.3875Z" fill="#614298"/>
<path d="M64.9688 2.15308H67.375V4.55933H64.9688V2.15308Z" fill="#614298"/>
<path d="M64.9688 18.9968H67.375V21.4031H64.9688V18.9968Z" fill="#614298"/>
<path d="M73.3906 10.575H75.7969V12.9812H73.3906V10.575Z" fill="#614298"/>
<path d="M56.5469 10.575H58.9531V12.9812H56.5469V10.575Z" fill="#614298"/>
<path d="M70.4336 5.84955L72.1351 4.14807L73.8365 5.84955L72.1351 7.55102L70.4336 5.84955Z" fill="#614298"/>
<path d="M58.5168 17.7559L60.2183 16.0544L61.9198 17.7559L60.2183 19.4574L58.5168 17.7559Z" fill="#614298"/>
<path d="M70.4019 17.7179L72.1033 16.0164L73.8048 17.7179L72.1033 19.4194L70.4019 17.7179Z" fill="#614298"/>
<path d="M58.4944 5.81299L60.1959 4.11151L61.8973 5.81299L60.1959 7.51446L58.4944 5.81299Z" fill="#614298"/>
<path d="M69.6749 48.6296V44.2625C69.6702 40.1157 68.0208 36.1402 65.0887 33.208C62.1565 30.2759 58.181 28.6265 54.0343 28.6218H49.2218C45.2309 28.6228 41.3927 30.1563 38.5 32.9057C35.6072 30.1563 31.7691 28.6228 27.7782 28.6218H22.9657C18.819 28.6265 14.8434 30.2759 11.9113 33.208C8.9791 36.1402 7.32975 40.1157 7.32505 44.2625V48.6296L1.7841 55.094C1.50646 55.4177 1.31984 55.8094 1.24336 56.2289C1.16687 56.6484 1.20327 57.0808 1.34882 57.4816C1.49437 57.8824 1.74384 58.2374 2.07169 58.5101C2.39954 58.7828 2.79398 58.9634 3.21461 59.0336L7.32509 59.7186V63.5125C7.32769 65.7453 8.21583 67.8859 9.79468 69.4647C11.3735 71.0436 13.5141 71.9317 15.747 71.9343H24.1688V76.7468H26.5751V70.7312C26.5751 70.5732 26.544 70.4167 26.4836 70.2707C26.4231 70.1247 26.3345 69.9921 26.2228 69.8804C26.1111 69.7686 25.9784 69.68 25.8324 69.6196C25.6864 69.5591 25.53 69.528 25.372 69.5281H15.747C14.1521 69.5262 12.6231 68.8918 11.4953 67.7641C10.3676 66.6363 9.73321 65.1073 9.73134 63.5125V58.7C9.73145 58.4152 9.63048 58.1396 9.44641 57.9223C9.26234 57.7049 9.00712 57.56 8.72619 57.5133L3.61056 56.6603L9.44172 49.8574C9.62858 49.6395 9.7313 49.362 9.7313 49.075V44.2625C9.73527 40.7537 11.1309 37.3898 13.6119 34.9087C16.093 32.4276 19.4569 31.032 22.9657 31.0281H27.7782C31.1711 31.0287 34.433 32.3382 36.8845 34.6838C34.7445 37.4182 33.5816 40.7903 33.5811 44.2625V52.6843H35.9874V44.2625C35.9879 41.4859 36.8675 38.7808 38.5 36.535C40.1325 38.7808 41.012 41.4859 41.0126 44.2625V52.6843H43.4188V44.2625C43.4183 40.7903 42.2554 37.4182 40.1155 34.6838C42.567 32.3382 45.8289 31.0287 49.2218 31.0281H54.0343C57.543 31.032 60.9069 32.4276 63.388 34.9087C65.8691 37.3898 67.2647 40.7537 67.2686 44.2625V49.075C67.2686 49.362 67.3714 49.6396 67.5583 49.8575L73.3894 56.6603L68.2737 57.5133C67.9928 57.5601 67.7376 57.705 67.5536 57.9223C67.3695 58.1396 67.2685 58.4152 67.2686 58.7V63.5125C67.2668 65.1073 66.6324 66.6363 65.5046 67.7641C64.3769 68.8918 62.8479 69.5262 61.253 69.5281H51.628C51.47 69.528 51.3135 69.5591 51.1676 69.6196C51.0216 69.68 50.8889 69.7686 50.7772 69.8804C50.6655 69.9921 50.5768 70.1247 50.5164 70.2707C50.4559 70.4167 50.4249 70.5732 50.4249 70.7312V76.7468H52.8311V71.9343H61.253C63.4858 71.9317 65.6265 71.0436 67.2053 69.4647C68.7841 67.8859 69.6723 65.7453 69.6749 63.5125V59.7186L73.7848 59.0336C74.2054 58.9637 74.5998 58.7832 74.9277 58.5106C75.2556 58.2381 75.5051 57.8833 75.6508 57.4826C75.7964 57.0818 75.833 56.6496 75.7567 56.2301C75.6803 55.8107 75.4939 55.419 75.2164 55.0953L69.6749 48.6296Z" fill="#614298"/>
<path d="M57.75 50.2781C62.2776 50.2781 65.7765 45.7875 65.9234 45.5972C66.0845 45.3867 66.1719 45.1291 66.1719 44.864C66.1719 44.599 66.0845 44.3413 65.9234 44.1309C65.7765 43.9405 62.2776 39.45 57.75 39.45C53.2224 39.45 49.7235 43.9405 49.5766 44.1309C49.4155 44.3413 49.3281 44.599 49.3281 44.864C49.3281 45.1291 49.4155 45.3867 49.5766 45.5972C49.7235 45.7875 53.2224 50.2781 57.75 50.2781ZM60.6177 42.6966C61.6342 43.2824 62.5604 44.0124 63.3674 44.864C62.5604 45.7156 61.6342 46.4457 60.6178 47.0315C61.0985 46.4112 61.3594 45.6488 61.3594 44.864C61.3594 44.0793 61.0985 43.3168 60.6177 42.6966ZM57.75 43.6609C57.988 43.6609 58.2206 43.7314 58.4184 43.8637C58.6163 43.9959 58.7705 44.1838 58.8615 44.4036C58.9526 44.6234 58.9764 44.8653 58.93 45.0987C58.8836 45.3321 58.769 45.5465 58.6007 45.7148C58.4325 45.883 58.2181 45.9976 57.9847 46.044C57.7513 46.0904 57.5094 46.0666 57.2896 45.9756C57.0697 45.8845 56.8818 45.7303 56.7496 45.5324C56.6174 45.3346 56.5469 45.102 56.5469 44.864C56.5472 44.545 56.6741 44.2392 56.8996 44.0136C57.1252 43.7881 57.431 43.6612 57.75 43.6609ZM54.8823 42.6966C54.4015 43.3168 54.1406 44.0793 54.1406 44.864C54.1406 45.6487 54.4015 46.4112 54.8823 47.0314C53.8658 46.4457 52.9396 45.7156 52.1327 44.864C52.9396 44.0124 53.8658 43.2824 54.8823 42.6966Z" fill="#614298"/>
<path d="M14.0203 42.1499L12.4482 43.971C14.1513 45.5745 16.3633 46.5292 18.6983 46.6687C21.0334 46.529 23.2454 45.5743 24.9489 43.971L23.3768 42.1499C22.1059 43.3701 20.454 44.116 18.6983 44.2624C16.9427 44.1161 15.2909 43.3702 14.0203 42.1499Z" fill="#614298"/>
<path d="M49.3281 64.7156C49.3281 62.574 48.6931 60.4805 47.5033 58.6998C46.3135 56.9191 44.6223 55.5313 42.6437 54.7117C40.6652 53.8921 38.488 53.6777 36.3875 54.0955C34.2871 54.5133 32.3577 55.5446 30.8434 57.0589C29.329 58.5733 28.2977 60.5027 27.8799 62.6031C27.4621 64.7036 27.6766 66.8807 28.4961 68.8593C29.3157 70.8379 30.7035 72.529 32.4842 73.7188C34.2649 74.9086 36.3584 75.5437 38.5 75.5437C41.3708 75.5405 44.1231 74.3986 46.1531 72.3687C48.183 70.3387 49.3249 67.5864 49.3281 64.7156ZM30.0781 64.7156C30.0781 63.0499 30.5721 61.4216 31.4975 60.0366C32.4229 58.6517 33.7382 57.5722 35.2771 56.9348C36.816 56.2974 38.5093 56.1306 40.143 56.4555C41.7767 56.7805 43.2774 57.5826 44.4552 58.7604C45.633 59.9382 46.4351 61.4389 46.7601 63.0726C47.085 64.7062 46.9182 66.3996 46.2808 67.9385C45.6434 69.4774 44.5639 70.7927 43.1789 71.7181C41.794 72.6435 40.1657 73.1375 38.5 73.1375C36.2672 73.1349 34.1266 72.2467 32.5477 70.6679C30.9689 69.089 30.0807 66.9484 30.0781 64.7156Z" fill="#614298"/>
<path d="M39.222 65.6778L44.0345 62.0684L42.5905 60.1439L38.0988 63.5124H33.6875V65.9187H38.5C38.7604 65.9186 39.0137 65.8341 39.222 65.6778Z" fill="#614298"/>
</svg>
