<svg width="32" height="32" viewBox="0 0 32 32" fill="none" xmlns="http://www.w3.org/2000/svg">
<g id="Phone-a66699ff.svg">
<g id="Group">
<path id="Vector" d="M27.7943 19.8072L21.9055 17.1685L21.8893 17.161C21.5836 17.0302 21.2501 16.9778 20.919 17.0083C20.5879 17.0389 20.2696 17.1515 19.993 17.336C19.9604 17.3575 19.9291 17.3809 19.8993 17.406L16.8568 19.9997C14.9293 19.0635 12.9393 17.0885 12.003 15.186L14.6005 12.0972C14.6255 12.066 14.6493 12.0347 14.6718 12.001C14.8523 11.7251 14.9618 11.4089 14.9906 11.0805C15.0194 10.752 14.9666 10.4216 14.8368 10.1185V10.1035L12.1905 4.20475C12.0189 3.80883 11.7239 3.47902 11.3495 3.26455C10.9751 3.05007 10.5413 2.96245 10.113 3.01475C8.41927 3.23763 6.86454 4.06946 5.73923 5.35487C4.61392 6.64028 3.995 8.29136 3.99806 9.99975C3.99806 19.9247 12.073 27.9997 21.998 27.9997C23.7064 28.0028 25.3575 27.3839 26.6429 26.2586C27.9283 25.1333 28.7601 23.5785 28.983 21.8847C29.0354 21.4566 28.948 21.0229 28.7337 20.6485C28.5196 20.2741 28.1899 19.979 27.7943 19.8072ZM21.998 25.9997C17.756 25.9951 13.689 24.3079 10.6894 21.3083C7.68989 18.3088 6.00269 14.2418 5.99806 9.99975C5.99336 8.77911 6.43312 7.59849 7.23523 6.67838C8.03734 5.75827 9.14694 5.16158 10.3568 4.99975C10.3563 5.00473 10.3563 5.00976 10.3568 5.01475L12.9818 10.8897L10.398 13.9822C10.3718 14.0124 10.348 14.0446 10.3268 14.0785C10.1387 14.3671 10.0283 14.6995 10.0064 15.0433C9.98455 15.3872 10.0518 15.7308 10.2018 16.041C11.3343 18.3572 13.668 20.6735 16.0093 21.8047C16.3217 21.9533 16.6674 22.0183 17.0124 21.9933C17.3575 21.9683 17.6902 21.8543 17.978 21.6622C18.0101 21.6406 18.041 21.6173 18.0705 21.5922L21.1093 18.9997L26.9843 21.631C26.9843 21.631 26.9943 21.631 26.998 21.631C26.8382 22.8426 26.2424 23.9544 25.3221 24.7585C24.4018 25.5626 23.2201 26.0039 21.998 25.9997Z" fill="black"/>
</g>
</g>
</svg>
