<svg width="1440" height="256" viewBox="0 0 1440 256" fill="none" xmlns="http://www.w3.org/2000/svg">
<g filter="url(#filter0_d_179_37)">
<g clip-path="url(#clip0_179_37)">
<rect y="-170" width="1440" height="366" rx="14" fill="#FCFAFF"/>
<path d="M190.892 -267.62C157.766 -256.2 139.742 -234.034 136.148 -214.337C132.554 -194.64 140.383 -176.285 143.997 -157.435C147.61 -138.586 146.39 -117.765 126.98 -99.1672C92.4413 -66.0826 18.4072 -53.8599 -41.3468 -34.5377C-131.761 -5.30701 -200.763 48.8744 -215.427 102.154" stroke="#C0ACE0" stroke-opacity="0.57" stroke-miterlimit="10"/>
<path d="M170.647 -272.657C137.521 -261.237 119.497 -239.071 115.903 -219.374C112.309 -199.677 120.138 -181.322 123.752 -162.472C127.365 -143.623 126.145 -122.802 106.735 -104.204C72.1963 -71.1197 -1.83799 -58.8969 -61.5919 -39.5748C-152.006 -10.3441 -221.008 43.8373 -235.672 97.1166" stroke="#C0ACE0" stroke-opacity="0.57" stroke-miterlimit="10"/>
<path d="M150.4 -277.696C117.274 -266.276 99.2503 -244.11 95.6563 -224.413C92.0623 -204.716 99.8908 -186.361 103.505 -167.511C107.118 -148.662 105.898 -127.841 86.4883 -109.243C51.9492 -76.1588 -22.0851 -63.936 -81.839 -44.6139C-172.253 -15.3831 -241.255 38.7982 -255.919 92.0775" stroke="#C0ACE0" stroke-opacity="0.57" stroke-miterlimit="10"/>
<path d="M130.145 -282.741C97.0194 -271.321 78.9953 -249.155 75.4013 -229.458C71.8073 -209.761 79.6359 -191.406 83.2496 -172.556C86.8633 -153.707 85.643 -132.886 66.2334 -114.288C31.6944 -81.2038 -42.3399 -68.9809 -102.094 -49.6588C-192.508 -20.4281 -261.51 33.7533 -276.174 87.0325" stroke="#C0ACE0" stroke-opacity="0.57" stroke-miterlimit="10"/>
<path d="M1520.44 180.02C1485.54 191.084 1442.21 189.676 1410.27 182.283C1378.33 174.889 1354.47 162.472 1327.63 151.908C1300.78 141.345 1268.38 132.255 1229.77 133.194C1161.08 134.869 1103.36 165.789 1042.35 186.341C950.042 217.441 830.98 226.336 741.976 208.781" stroke="#C0ACE0" stroke-opacity="0.57" stroke-miterlimit="10"/>
<path d="M1517.44 192.377C1482.53 203.44 1439.21 202.033 1407.27 194.639C1375.33 187.245 1351.47 174.828 1324.62 164.265C1297.78 153.702 1265.38 144.611 1226.77 145.55C1158.07 147.226 1100.36 178.145 1039.35 198.697C947.039 229.798 827.978 238.693 738.973 221.138" stroke="#C0ACE0" stroke-opacity="0.57" stroke-miterlimit="10"/>
<path d="M1514.44 204.735C1479.53 215.799 1436.21 214.391 1404.27 206.998C1372.33 199.604 1348.47 187.186 1321.62 176.623C1294.78 166.06 1262.38 156.97 1223.77 157.908C1155.07 159.584 1097.36 190.503 1036.35 211.056C944.039 242.156 824.978 251.051 735.973 233.496" stroke="#C0ACE0" stroke-opacity="0.57" stroke-miterlimit="10"/>
<path d="M1511.44 217.099C1476.54 228.163 1433.22 226.756 1401.28 219.362C1369.34 211.968 1345.47 199.551 1318.63 188.987C1291.78 178.424 1259.38 169.334 1220.77 170.273C1152.08 171.948 1094.36 202.868 1033.35 223.42C941.044 254.52 821.983 263.416 732.978 245.86" stroke="#C0ACE0" stroke-opacity="0.57" stroke-miterlimit="10"/>
<circle cx="31.6957" cy="135.696" r="3.69565" fill="#F4EDFF"/>
<circle cx="31.6957" cy="156.946" r="3.69565" fill="#F4EDFF"/>
<circle cx="57.5648" cy="135.696" r="3.69565" fill="#F4EDFF"/>
<circle cx="57.5648" cy="156.946" r="3.69565" fill="#F4EDFF"/>
<circle cx="83.4349" cy="135.696" r="3.69565" fill="#F4EDFF"/>
<circle cx="83.4349" cy="156.946" r="3.69565" fill="#F4EDFF"/>
<circle cx="109.304" cy="135.696" r="3.69565" fill="#F4EDFF"/>
<circle cx="109.304" cy="156.946" r="3.69565" fill="#F4EDFF"/>
<circle cx="31.6957" cy="178.196" r="3.69565" fill="#F4EDFF"/>
<circle cx="31.6957" cy="199.446" r="3.69565" fill="#F4EDFF"/>
<circle cx="57.5648" cy="178.196" r="3.69565" fill="#F4EDFF"/>
<circle cx="57.5648" cy="199.446" r="3.69565" fill="#F4EDFF"/>
<circle cx="83.4349" cy="178.196" r="3.69565" fill="#F4EDFF"/>
<circle cx="83.4349" cy="199.446" r="3.69565" fill="#F4EDFF"/>
<circle cx="109.304" cy="178.196" r="3.69565" fill="#F4EDFF"/>
<circle cx="109.304" cy="199.446" r="3.69565" fill="#F4EDFF"/>
</g>
</g>
<defs>
<filter id="filter0_d_179_37" x="-48" y="-218" width="1548" height="474" filterUnits="userSpaceOnUse" color-interpolation-filters="sRGB">
<feFlood flood-opacity="0" result="BackgroundImageFix"/>
<feColorMatrix in="SourceAlpha" type="matrix" values="0 0 0 0 0 0 0 0 0 0 0 0 0 0 0 0 0 0 127 0" result="hardAlpha"/>
<feOffset dx="6" dy="6"/>
<feGaussianBlur stdDeviation="27"/>
<feComposite in2="hardAlpha" operator="out"/>
<feColorMatrix type="matrix" values="0 0 0 0 0 0 0 0 0 0 0 0 0 0 0 0 0 0 0.05 0"/>
<feBlend mode="normal" in2="BackgroundImageFix" result="effect1_dropShadow_179_37"/>
<feBlend mode="normal" in="SourceGraphic" in2="effect1_dropShadow_179_37" result="shape"/>
</filter>
<clipPath id="clip0_179_37">
<rect y="-170" width="1440" height="366" rx="14" fill="white"/>
</clipPath>
</defs>
</svg>
