<svg width="45" height="45" viewBox="0 0 45 45" fill="none" xmlns="http://www.w3.org/2000/svg">
<g id="mi:arrow-right-up">
<path id="Vector" d="M15.0004 13.125C15.0004 12.6277 15.1979 12.1508 15.5496 11.7992C15.9012 11.4475 16.3781 11.25 16.8754 11.25H31.8754C32.3727 11.25 32.8496 11.4475 33.2012 11.7992C33.5529 12.1508 33.7504 12.6277 33.7504 13.125V28.125C33.7504 28.6223 33.5529 29.0992 33.2012 29.4508C32.8496 29.8025 32.3727 30 31.8754 30C31.3781 30 30.9012 29.8025 30.5496 29.4508C30.1979 29.0992 30.0004 28.6223 30.0004 28.125V17.6512L14.451 33.2006C14.0974 33.5422 13.6238 33.7312 13.1321 33.7269C12.6405 33.7226 12.1703 33.5254 11.8226 33.1778C11.475 32.8301 11.2778 32.3599 11.2735 31.8683C11.2692 31.3766 11.4582 30.903 11.7998 30.5494L27.3491 15H16.8754C16.3781 15 15.9012 14.8025 15.5496 14.4508C15.1979 14.0992 15.0004 13.6223 15.0004 13.125Z" fill="#7355A8"/>
</g>
</svg>
