<svg width="32" height="32" viewBox="0 0 32 32" fill="none" xmlns="http://www.w3.org/2000/svg">
<path d="M25.0002 20.0001C25.0009 20.1317 24.9757 20.2621 24.926 20.384C24.8762 20.5058 24.8029 20.6166 24.7102 20.7101C24.6172 20.8038 24.5066 20.8782 24.3848 20.929C24.2629 20.9797 24.1322 21.0059 24.0002 21.0059C23.8682 21.0059 23.7375 20.9797 23.6156 20.929C23.4937 20.8782 23.3831 20.8038 23.2902 20.7101L16.0002 13.4101L8.71019 20.7101C8.52188 20.8984 8.26649 21.0042 8.00019 21.0042C7.86833 21.0042 7.73776 20.9782 7.61594 20.9277C7.49411 20.8773 7.38342 20.8033 7.29019 20.7101C7.19695 20.6168 7.12299 20.5061 7.07253 20.3843C7.02207 20.2625 6.99609 20.1319 6.99609 20.0001C6.99609 19.7338 7.10188 19.4784 7.29019 19.2901L15.2902 11.2901C15.3831 11.1963 15.4937 11.1219 15.6156 11.0712C15.7375 11.0204 15.8682 10.9943 16.0002 10.9943C16.1322 10.9943 16.2629 11.0204 16.3848 11.0712C16.5066 11.1219 16.6172 11.1963 16.7102 11.2901L24.7102 19.2901C24.8029 19.3835 24.8762 19.4943 24.926 19.6162C24.9757 19.738 25.0009 19.8685 25.0002 20.0001Z" fill="black"/>
</svg>
