<svg width="25" height="24" viewBox="0 0 25 24" fill="none" xmlns="http://www.w3.org/2000/svg">
<g clip-path="url(#clip0_168_139)">
<path d="M3.5 12H21.5" stroke="#614298" stroke-width="2" stroke-linecap="round" stroke-linejoin="round"/>
<path d="M12.5 21C17.4706 21 21.5 16.9706 21.5 12C21.5 7.02944 17.4706 3 12.5 3C7.52944 3 3.5 7.02944 3.5 12C3.5 16.9706 7.52944 21 12.5 21Z" stroke="#614298" stroke-width="2" stroke-linecap="round" stroke-linejoin="round"/>
<path d="M16.25 12C16.25 18 12.5 21 12.5 21C12.5 21 8.75 18 8.75 12C8.75 6 12.5 3 12.5 3C12.5 3 16.25 6 16.25 12Z" stroke="#614298" stroke-width="2" stroke-linecap="round" stroke-linejoin="round"/>
</g>
<defs>
<clipPath id="clip0_168_139">
<rect width="24" height="24" fill="white" transform="translate(0.5)"/>
</clipPath>
</defs>
</svg>
